<svg width="200" height="42" version="1.1" xmlns="http://www.w3.org/2000/svg" desc="Created with imagetracer.js version 1.2.6" ><path fill="rgb(63,124,180)" stroke="rgb(63,124,180)" stroke-width="1" opacity="1" d="M 70.5 21 L 129.5 21 L 130.5 22 L 180 22.5 L 130.5 23 L 129.5 24 L 70.5 24 L 69.5 23 L 20 22.5 L 69.5 22 L 70.5 21 Z " /><path fill="rgb(255,255,255)" stroke="rgb(255,255,255)" stroke-width="1" opacity="1" d="M 0 0 L 199.5 0 L 200 0.5 L 200 42 L 0.5 42 L 0 41.5 L 0 0 Z M 71 21 L 70 22 L 20 23 L 70 23 L 71 24 L 130 24 L 131 23 L 180 23 L 131 22 L 130 21 L 71 21 Z " /></svg>