<svg width="70" height="65" version="1.1" xmlns="http://www.w3.org/2000/svg" desc="Created with imagetracer.js version 1.2.6" ><path fill="rgb(181,216,239)" stroke="rgb(181,216,239)" stroke-width="1" opacity="1" d="M 19.5 10 L 18.5 12 L 19.5 10 Z " /><path fill="rgb(181,216,239)" stroke="rgb(181,216,239)" stroke-width="1" opacity="1" d="M 50.5 10 L 51.5 12 L 50.5 10 Z " /><path fill="rgb(181,216,239)" stroke="rgb(181,216,239)" stroke-width="1" opacity="1" d="M 13.5 16 L 12.5 18 L 13.5 16 Z " /><path fill="rgb(181,216,239)" stroke="rgb(181,216,239)" stroke-width="1" opacity="1" d="M 56.5 16 L 57.5 18 L 56.5 16 Z " /><path fill="rgb(181,216,239)" stroke="rgb(181,216,239)" stroke-width="1" opacity="1" d="M 25.5 21 L 24.5 23 L 25.5 21 Z " /><path fill="rgb(181,216,239)" stroke="rgb(181,216,239)" stroke-width="1" opacity="1" d="M 27.5 22 L 42.5 22 L 44 23.5 L 44 42.5 L 42.5 44 L 27 43.5 L 43 43 L 43 23 L 27.5 23 L 27.5 22 Z " /><path fill="rgb(181,216,239)" stroke="rgb(181,216,239)" stroke-width="1" opacity="1" d="M 25.5 24 L 26 26 L 24 25.5 L 25.5 24 Z " /><path fill="rgb(181,216,239)" stroke="rgb(181,216,239)" stroke-width="1" opacity="1" d="M 32.5 25 L 32.5 27 L 34 27.5 L 32.5 28 Q 29.5 26.5 32.5 25 Z " /><path fill="rgb(181,216,239)" stroke="rgb(181,216,239)" stroke-width="1" opacity="1" d="M 25.5 27 L 26.5 29 L 25.5 27 Z " /><path fill="rgb(181,216,239)" stroke="rgb(181,216,239)" stroke-width="1" opacity="1" d="M 37.5 27 L 35.5 30 L 37.5 27 Z " /><path fill="rgb(181,216,239)" stroke="rgb(181,216,239)" stroke-width="1" opacity="1" d="M 23.5 28 L 22.5 30 L 23.5 28 Z " /><path fill="rgb(181,216,239)" stroke="rgb(181,216,239)" stroke-width="1" opacity="1" d="M 31.5 29 L 30.5 31 L 31.5 29 Z " /><path fill="rgb(181,216,239)" stroke="rgb(181,216,239)" stroke-width="1" opacity="1" d="M 24.5 31 L 25.5 33 L 24.5 31 Z " /><path fill="rgb(181,216,239)" stroke="rgb(181,216,239)" stroke-width="1" opacity="1" d="M 22.5 33 L 27 34.5 L 23.5 35 L 22.5 33 Z " /><path fill="rgb(181,216,239)" stroke="rgb(181,216,239)" stroke-width="1" opacity="1" d="M 30.5 34 L 39 34.5 L 30.5 35 L 30.5 34 Z " /><path fill="rgb(181,216,239)" stroke="rgb(181,216,239)" stroke-width="1" opacity="1" d="M 25.5 36 L 26.5 38 L 25.5 36 Z " /><path fill="rgb(181,216,239)" stroke="rgb(181,216,239)" stroke-width="1" opacity="1" d="M 23.5 37 L 22.5 39 L 23.5 37 Z " /><path fill="rgb(181,216,239)" stroke="rgb(181,216,239)" stroke-width="1" opacity="1" d="M 30.5 37 Q 35.9 35.1 35 38.5 L 33.5 38 Q 29.5 38.8 30.5 37 Z " /><path fill="rgb(181,216,239)" stroke="rgb(181,216,239)" stroke-width="1" opacity="1" d="M 24.5 40 Q 26.8 39.3 26 41.5 L 24.5 40 Z " /><path fill="rgb(181,216,239)" stroke="rgb(181,216,239)" stroke-width="1" opacity="1" d="M 24.5 43 L 25.5 45 L 24.5 43 Z " /><path fill="rgb(181,216,239)" stroke="rgb(181,216,239)" stroke-width="1" opacity="1" d="M 12.5 48 L 13.5 50 L 12.5 48 Z " /><path fill="rgb(181,216,239)" stroke="rgb(181,216,239)" stroke-width="1" opacity="1" d="M 57.5 48 L 56.5 50 L 57.5 48 Z " /><path fill="rgb(181,216,239)" stroke="rgb(181,216,239)" stroke-width="1" opacity="1" d="M 18.5 54 L 19.5 56 L 18.5 54 Z " /><path fill="rgb(181,216,239)" stroke="rgb(181,216,239)" stroke-width="1" opacity="1" d="M 51.5 54 L 50.5 56 L 51.5 54 Z " /><path fill="rgb(85,129,199)" stroke="rgb(85,129,199)" stroke-width="1" opacity="1" d="M 17.5 12 L 14.5 16 L 17.5 12 Z " /><path fill="rgb(85,129,199)" stroke="rgb(85,129,199)" stroke-width="1" opacity="1" d="M 52.5 12 L 55.5 16 L 52.5 12 Z " /><path fill="rgb(85,129,199)" stroke="rgb(85,129,199)" stroke-width="1" opacity="1" d="M 45.5 23 L 46 42.5 L 45 42.5 L 45.5 23 Z " /><path fill="rgb(85,129,199)" stroke="rgb(85,129,199)" stroke-width="1" opacity="1" d="M 33.5 25 L 34.5 27 L 33.5 25 Z " /><path fill="rgb(85,129,199)" stroke="rgb(85,129,199)" stroke-width="1" opacity="1" d="M 38.5 27 Q 40.8 27.8 40 31.5 L 38.5 33 L 30.5 33 L 30.5 32 L 39 32 L 39 28.5 L 38.5 27 Z " /><path fill="rgb(85,129,199)" stroke="rgb(85,129,199)" stroke-width="1" opacity="1" d="M 14.5 50 L 17.5 54 L 14.5 50 Z " /><path fill="rgb(85,129,199)" stroke="rgb(85,129,199)" stroke-width="1" opacity="1" d="M 55.5 50 L 52.5 54 L 55.5 50 Z " /><path fill="rgb(5,99,187)" stroke="rgb(5,99,187)" stroke-width="1" opacity="1" d="M 32.5 6 Q 50.3 6.3 57 17.5 Q 62.3 23.7 62 35.5 L 59 45.5 L 50.5 55 Q 44.3 60.3 32.5 60 L 22.5 57 L 13 48.5 Q 7.7 42.3 8 30.5 L 11 20.5 L 19.5 11 L 32.5 6 Z M 26 21 Q 23 22 24 26 Q 27 27 26 23 L 43 23 L 43 43 L 27 43 L 26 40 Q 23 39 24 44 L 26 45 L 45 45 L 46 43 L 46 24 L 45 23 L 45 21 L 26 21 Z M 33 25 Q 30 27 33 28 L 35 27 L 33 25 Z M 25 27 L 24 28 Q 21 27 22 30 L 28 30 L 28 28 L 25 27 Z M 38 27 L 36 29 Q 31 28 30 31 L 31 33 L 39 33 Q 41 32 40 29 L 38 27 Z M 24 31 Q 25 34 22 33 L 22 35 L 28 35 L 26 31 L 24 31 Z M 30 34 L 31 36 L 40 36 L 40 34 L 30 34 Z M 25 36 L 24 37 Q 21 36 22 39 L 28 39 L 28 37 L 25 36 Z M 30 37 L 30 39 L 35 39 L 35 37 L 30 37 Z " /><path fill="rgb(255,254,254)" stroke="rgb(255,254,254)" stroke-width="1" opacity="1" d="M 43.5 21 L 45 22.5 L 45 43.5 L 43 44.5 L 44 43.5 L 44 22.5 L 43.5 21 Z " /><path fill="rgb(255,254,254)" stroke="rgb(255,254,254)" stroke-width="1" opacity="1" d="M 26.5 22 L 25.5 24 L 24 23.5 L 26.5 22 Z " /><path fill="rgb(255,254,254)" stroke="rgb(255,254,254)" stroke-width="1" opacity="1" d="M 24.5 27 L 26.5 30 L 24.5 27 Z " /><path fill="rgb(255,254,254)" stroke="rgb(255,254,254)" stroke-width="1" opacity="1" d="M 38.5 28 L 39 31.5 L 38 31.5 L 38.5 28 Z " /><path fill="rgb(255,254,254)" stroke="rgb(255,254,254)" stroke-width="1" opacity="1" d="M 24.5 36 L 26.5 39 L 24.5 36 Z " /><path fill="rgb(255,254,254)" stroke="rgb(255,254,254)" stroke-width="1" opacity="1" d="M 24.5 42 L 27 43.5 L 25.5 43 L 24.5 42 Z " /><path fill="rgb(255,255,255)" stroke="rgb(255,255,255)" stroke-width="1" opacity="1" d="M 0 0 L 70 0 L 70 65 L 0 65 L 0 0 Z M 29 6 L 20 10 Q 11 16 8 27 Q 6 42 12 49 Q 18 57 29 60 Q 44 62 51 56 Q 59 50 62 40 Q 64 25 58 18 Q 51 4 29 6 Z " /><path fill="rgb(255,255,255)" stroke="rgb(255,255,255)" stroke-width="1" opacity="1" d="M 26.5 21 L 42.5 21 L 44 22.5 L 42.5 22 L 26.5 22 L 25.5 23 L 26.5 21 Z " /><path fill="rgb(255,255,255)" stroke="rgb(255,255,255)" stroke-width="1" opacity="1" d="M 24.5 28 L 25.5 30 L 23 29.5 L 24.5 28 Z " /><path fill="rgb(255,255,255)" stroke="rgb(255,255,255)" stroke-width="1" opacity="1" d="M 37.5 28 L 38 32 L 30 31.5 L 33.5 30 L 34.5 31 L 37.5 28 Z " /><path fill="rgb(255,255,255)" stroke="rgb(255,255,255)" stroke-width="1" opacity="1" d="M 24.5 32 L 25.5 34 L 23 33.5 L 24.5 32 Z " /><path fill="rgb(255,255,255)" stroke="rgb(255,255,255)" stroke-width="1" opacity="1" d="M 31.5 35 L 38 35.5 L 31.5 36 L 31.5 35 Z " /><path fill="rgb(255,255,255)" stroke="rgb(255,255,255)" stroke-width="1" opacity="1" d="M 24.5 37 L 25.5 39 L 23 38.5 L 24.5 37 Z " /><path fill="rgb(255,255,255)" stroke="rgb(255,255,255)" stroke-width="1" opacity="1" d="M 31.5 38 L 34 38.5 L 31.5 39 L 31.5 38 Z " /><path fill="rgb(255,255,255)" stroke="rgb(255,255,255)" stroke-width="1" opacity="1" d="M 25.5 43 L 26.5 44 L 42.5 44 L 44 43.5 L 42.5 45 L 26.5 45 L 25.5 43 Z " /></svg>